<svg width="24" height="24" viewBox="0 0 24 24" fill="none" xmlns="http://www.w3.org/2000/svg">
<g clip-path="url(#clip0_2698_1437)">
<g filter="url(#filter0_d_2698_1437)">
<path d="M22.8988 0.934863C22.7374 0.773139 22.5457 0.644832 22.3346 0.557289C22.1236 0.469746 21.8973 0.424684 21.6689 0.424684C21.4404 0.424684 21.2142 0.469746 21.0031 0.557289C20.7921 0.644832 20.6004 0.773139 20.439 0.934863L11.9082 9.44819L3.37744 0.917417C3.21592 0.755905 3.02418 0.627786 2.81315 0.540377C2.60213 0.452967 2.37595 0.407978 2.14754 0.407978C1.91913 0.407978 1.69295 0.452967 1.48192 0.540377C1.2709 0.627786 1.07915 0.755905 0.917642 0.917417C0.75613 1.07893 0.628012 1.27067 0.540602 1.4817C0.453192 1.69272 0.408203 1.9189 0.408203 2.14731C0.408203 2.37573 0.453192 2.6019 0.540602 2.81293C0.628012 3.02395 0.75613 3.2157 0.917642 3.37721L9.44841 11.908L0.917642 20.4387C0.75613 20.6003 0.628012 20.792 0.540602 21.003C0.453192 21.2141 0.408203 21.4402 0.408203 21.6686C0.408203 21.8971 0.453192 22.1232 0.540602 22.3343C0.628012 22.5453 0.75613 22.737 0.917642 22.8985C1.07915 23.0601 1.2709 23.1882 1.48192 23.2756C1.69295 23.363 1.91913 23.408 2.14754 23.408C2.37595 23.408 2.60213 23.363 2.81315 23.2756C3.02418 23.1882 3.21592 23.0601 3.37744 22.8985L11.9082 14.3678L20.439 22.8985C20.6005 23.0601 20.7922 23.1882 21.0033 23.2756C21.2143 23.363 21.4405 23.408 21.6689 23.408C21.8973 23.408 22.1235 23.363 22.3345 23.2756C22.5455 23.1882 22.7373 23.0601 22.8988 22.8985C23.0603 22.737 23.1884 22.5453 23.2758 22.3343C23.3632 22.1232 23.4082 21.8971 23.4082 21.6686C23.4082 21.4402 23.3632 21.2141 23.2758 21.003C23.1884 20.792 23.0603 20.6003 22.8988 20.4387L14.368 11.908L22.8988 3.37721C23.5617 2.71429 23.5617 1.59779 22.8988 0.934863Z" fill="#F8F8F8"/>
</g>
</g>
<defs>
<filter id="filter0_d_2698_1437" x="-3.5918" y="-3.59202" width="31" height="31" filterUnits="userSpaceOnUse" color-interpolation-filters="sRGB">
<feFlood flood-opacity="0" result="BackgroundImageFix"/>
<feColorMatrix in="SourceAlpha" type="matrix" values="0 0 0 0 0 0 0 0 0 0 0 0 0 0 0 0 0 0 127 0" result="hardAlpha"/>
<feOffset/>
<feGaussianBlur stdDeviation="2"/>
<feComposite in2="hardAlpha" operator="out"/>
<feColorMatrix type="matrix" values="0 0 0 0 0 0 0 0 0 0 0 0 0 0 0 0 0 0 0.1 0"/>
<feBlend mode="normal" in2="BackgroundImageFix" result="effect1_dropShadow_2698_1437"/>
<feBlend mode="normal" in="SourceGraphic" in2="effect1_dropShadow_2698_1437" result="shape"/>
</filter>
<clipPath id="clip0_2698_1437">
<rect width="24" height="24" fill="white"/>
</clipPath>
</defs>
</svg>
